<svg xmlns="http://www.w3.org/2000/svg" xmlns:xlink="http://www.w3.org/1999/xlink" width="100" height="100" viewBox="0 0 100 100" fill="none"><path     fill="#000000"  d="M0 100L100 100L100 0L0 0L0 100Z"></path><g ><path     fill="#FC4943"  d="M35.5256 21.8962L49.7692 21.9732Q60.9331 21.9732 69.4023 30.0189Q77.8715 38.0646 77.8715 49.8059Q77.8715 61.5473 69.5948 69.9395Q61.3181 78.3317 49.5382 78.3317L35.4486 78.3317Q30.752 78.3317 29.5971 76.4068Q28.6732 74.79 28.6732 71.4793L28.6732 28.6715Q28.6732 26.8237 28.7887 25.9768Q28.9042 25.1299 29.5201 23.975Q30.598 21.8962 35.5256 21.8962ZM49.7692 64.704Q55.3127 64.704 59.7782 60.5849Q64.2438 56.4658 64.2438 50.2294Q64.2438 43.993 59.8937 39.7969Q55.5436 35.6008 49.6922 35.6008L42.3009 35.6008L42.3009 64.704L49.7692 64.704Z"></path></g><g ><path     fill="#FFFFFF"  d="M29.9516 21.8962L44.1952 21.9732Q55.3591 21.9732 63.8283 30.0189Q72.2975 38.0646 72.2975 49.8059Q72.2975 61.5473 64.0208 69.9395Q55.7441 78.3317 43.9642 78.3317L29.8746 78.3317Q25.178 78.3317 24.0231 76.4068Q23.0992 74.79 23.0992 71.4793L23.0992 28.6715Q23.0992 26.8237 23.2147 25.9768Q23.3302 25.1299 23.9462 23.975Q25.0241 21.8962 29.9516 21.8962ZM44.1952 64.704Q49.7387 64.704 54.2043 60.5849Q58.6698 56.4658 58.6698 50.2294Q58.6698 43.993 54.3197 39.7969Q49.9697 35.6008 44.1182 35.6008L36.7269 35.6008L36.7269 64.704L44.1952 64.704Z"></path></g></svg>